<?xml version="1.0" standalone="no"?>
<!DOCTYPE svg PUBLIC "-//W3C//DTD SVG 20010904//EN"
 "http://www.w3.org/TR/2001/REC-SVG-20010904/DTD/svg10.dtd">
<svg version="1.0" xmlns="http://www.w3.org/2000/svg"
 width="1280.000000pt" height="1280.000000pt" viewBox="0 0 1280.000000 1280.000000"
 preserveAspectRatio="xMidYMid meet">
<metadata>
Created by potrace 1.15, written by Peter Selinger 2001-2017
</metadata>
<g transform="translate(0.000000,1280.000000) scale(0.100000,-0.100000)"
fill="#000000" stroke="none">
<path d="M5575 12780 c-255 -34 -535 -87 -554 -106 -8 -7 -37 -122 -67 -265
-28 -138 -56 -254 -60 -259 -5 -4 -146 -53 -314 -108 -168 -55 -312 -103 -321
-107 -11 -4 -75 47 -211 169 -108 96 -205 177 -215 180 -22 7 -97 -25 -317
-136 -209 -104 -355 -188 -366 -208 -7 -13 -1 -99 19 -277 27 -238 28 -258 12
-269 -9 -7 -135 -100 -280 -207 l-264 -194 -235 104 c-129 56 -248 103 -264
103 -25 0 -68 -39 -282 -253 -162 -162 -255 -262 -258 -278 -3 -18 27 -94 100
-255 58 -126 105 -234 105 -239 0 -6 -89 -135 -198 -288 -187 -260 -201 -277
-229 -277 -17 0 -136 11 -265 25 -154 15 -241 21 -252 14 -23 -12 -132 -210
-255 -463 -79 -162 -95 -203 -88 -222 5 -12 86 -106 179 -209 94 -102 169
-192 168 -198 -8 -37 -204 -642 -210 -648 -4 -4 -116 -31 -248 -59 -132 -29
-250 -56 -262 -61 -25 -9 -34 -37 -63 -196 -51 -276 -85 -545 -73 -568 5 -9
110 -74 234 -144 l224 -128 3 -350 2 -349 -219 -127 c-120 -70 -226 -136 -236
-147 -16 -18 -16 -26 -1 -152 34 -271 92 -586 111 -607 7 -7 126 -37 265 -66
139 -29 256 -57 260 -62 7 -7 162 -470 205 -610 l13 -43 -173 -195 c-95 -107
-176 -203 -180 -215 -12 -36 303 -658 345 -680 13 -7 96 -1 277 19 238 27 258
28 269 12 7 -9 100 -135 207 -279 l194 -264 -103 -236 c-57 -129 -104 -248
-104 -264 0 -24 40 -69 254 -282 163 -164 262 -255 277 -258 21 -3 124 40 431
180 l67 30 278 -199 c206 -147 279 -205 281 -222 1 -12 -8 -132 -22 -267 -14
-139 -21 -251 -16 -260 12 -23 196 -125 443 -246 163 -79 222 -104 239 -98 12
3 107 84 211 178 104 94 192 170 195 170 20 -4 630 -198 643 -205 11 -6 31
-78 69 -251 29 -134 56 -253 61 -265 9 -25 37 -34 196 -63 276 -51 545 -85
568 -73 9 5 74 110 144 234 l128 224 350 3 349 2 127 -219 c70 -120 136 -226
147 -236 18 -16 26 -16 152 0 169 21 276 38 457 72 115 22 146 31 156 48 7 11
35 127 61 259 27 131 53 244 59 251 5 7 147 58 315 113 168 55 312 103 321
107 11 4 75 -47 212 -169 108 -96 205 -177 217 -181 36 -12 658 303 680 345 7
13 1 96 -19 277 -16 142 -28 259 -28 259 1 1 127 94 280 206 l278 205 237
-103 c130 -57 250 -104 265 -104 23 0 71 43 281 253 163 162 255 262 258 278
3 18 -27 96 -103 262 l-107 237 201 280 c188 262 203 280 231 280 17 0 136
-11 265 -24 155 -17 241 -22 252 -15 23 12 132 210 255 463 79 162 95 203 88
222 -5 12 -85 106 -179 209 -93 103 -169 192 -168 199 8 38 204 641 210 647 4
4 116 31 248 59 132 29 250 56 262 61 26 10 34 35 68 220 49 270 80 527 66
548 -5 8 -110 71 -233 141 l-223 127 -3 349 -2 350 219 127 c120 70 226 136
236 147 16 18 16 26 1 152 -35 275 -92 586 -112 607 -7 8 -122 37 -265 67
-138 28 -254 56 -259 60 -6 7 -158 459 -205 611 l-13 43 173 195 c95 107 176
203 180 215 13 39 -306 662 -348 681 -15 6 -104 0 -277 -20 -234 -26 -256 -27
-267 -12 -6 9 -99 135 -206 280 l-194 263 104 236 c56 129 103 248 103 264 0
25 -39 68 -253 282 -162 162 -262 255 -278 258 -18 3 -96 -28 -262 -103 l-236
-107 -278 199 c-206 148 -279 205 -281 222 -1 12 8 132 22 267 15 155 21 251
15 262 -12 22 -212 132 -462 253 -159 78 -202 95 -221 88 -13 -4 -108 -84
-211 -178 -103 -93 -192 -169 -199 -168 -39 9 -641 204 -647 210 -4 5 -32 123
-63 263 -31 139 -61 259 -68 266 -33 31 -717 137 -753 117 -9 -5 -74 -110
-144 -234 l-128 -224 -349 -3 -350 -2 -123 212 c-68 117 -133 223 -144 236
-24 26 -27 26 -212 2z m2644 -1725 c683 -97 1241 -560 1454 -1205 67 -204 82
-306 82 -565 -1 -201 -4 -243 -23 -334 -63 -290 -173 -531 -341 -748 -516
-668 -1430 -881 -2189 -511 -427 209 -753 579 -903 1028 -124 373 -128 750 -9
1119 42 131 166 377 245 486 269 374 671 630 1120 714 61 11 126 22 145 24 92
10 325 5 419 -8z m-3894 -485 c610 -68 1137 -433 1407 -975 74 -148 132 -325
165 -498 21 -117 24 -455 5 -567 -52 -289 -153 -538 -310 -760 -85 -122 -299
-336 -422 -423 -113 -80 -339 -195 -465 -236 -367 -121 -763 -121 -1130 0
-126 41 -352 156 -465 236 -123 87 -337 301 -422 423 -327 464 -414 1049 -237
1590 127 388 400 734 751 952 331 205 743 300 1123 258z m5595 -3025 c538 -88
1002 -411 1268 -885 135 -240 200 -453 224 -737 27 -319 -36 -635 -187 -938
-89 -179 -175 -296 -335 -455 -344 -344 -766 -520 -1250 -520 -604 0 -1145
289 -1481 790 -304 453 -382 1029 -209 1553 43 129 157 355 237 466 297 413
758 683 1264 740 110 13 349 5 469 -14z m-6144 -809 c464 -98 858 -361 1115
-745 196 -291 293 -590 306 -941 32 -893 -592 -1652 -1492 -1816 -136 -25
-430 -25 -565 -1 -758 137 -1310 670 -1467 1416 -23 112 -27 150 -27 331 -1
131 4 232 12 280 72 401 240 729 509 996 271 268 614 439 1003 500 57 9 151
12 285 9 167 -3 220 -7 321 -29z m3277 -1841 c633 -84 1181 -510 1416 -1100
232 -580 147 -1229 -226 -1730 -573 -770 -1669 -943 -2453 -387 -105 75 -286
244 -359 337 -180 226 -305 498 -361 781 -27 137 -37 390 -21 529 49 412 224
777 512 1064 226 226 504 385 817 466 207 54 461 69 675 40z"/>
</g>
</svg>
